<svg width="178" height="274" viewBox="0 0 178 274" fill="none" xmlns="http://www.w3.org/2000/svg">
<path d="M31.1505 254.434V258.232C31.1505 262.554 29.6391 266.228 26.6163 269.253C23.5933 272.279 19.9226 273.791 15.6043 273.791C11.3051 273.791 7.6296 272.264 4.57776 269.21C1.52592 266.155 0 262.477 0 258.174V188.162C0 186.879 0.0902565 185.615 0.270772 184.37C0.451287 183.125 0.74124 181.942 1.14063 180.819L19.0992 129.802C20.6199 125.391 23.2749 121.821 27.0643 119.092C30.8536 116.364 35.1327 115 39.9013 115H138.099C142.867 115 147.146 116.364 150.936 119.092C154.725 121.821 157.38 125.391 158.901 129.802L176.859 180.819C177.259 181.942 177.549 183.125 177.729 184.37C177.91 185.615 178 186.879 178 188.162V258.232C178 262.554 176.489 266.228 173.466 269.253C170.443 272.279 166.772 273.791 162.454 273.791C158.154 273.791 154.479 272.264 151.427 269.21C148.375 266.155 146.849 262.477 146.849 258.174V254.434H31.1505ZM29.8525 165.36H148.147L138.283 137.019H39.7174L29.8525 165.36ZM45.8298 223.084C49.8592 223.084 53.2841 221.673 56.1047 218.85C58.9252 216.027 60.3355 212.599 60.3355 208.566C60.3355 204.534 58.9252 201.106 56.1047 198.283C53.2841 195.46 49.8592 194.048 45.8298 194.048C41.8005 194.048 38.3755 195.46 35.5549 198.283C32.7344 201.106 31.3241 204.534 31.3241 208.566C31.3241 212.599 32.7344 216.027 35.5549 218.85C38.3755 221.673 41.8005 223.084 45.8298 223.084ZM132.17 223.084C136.2 223.084 139.625 221.673 142.445 218.85C145.266 216.027 146.676 212.599 146.676 208.566C146.676 204.534 145.266 201.106 142.445 198.283C139.625 195.46 136.2 194.048 132.17 194.048C128.141 194.048 124.716 195.46 121.895 198.283C119.075 201.106 117.664 204.534 117.664 208.566C117.664 212.599 119.075 216.027 121.895 218.85C124.716 221.673 128.141 223.084 132.17 223.084Z" fill="url(#paint0_linear_2_47)"/>
<path d="M178 45.116C178 38.3902 169.622 32.9183 159.324 32.9183C149.026 32.9183 140.648 38.3902 140.648 45.116C140.648 49.6856 140.952 55.6878 137.032 58.0363L133.246 60.3049C129.099 62.7895 123.743 61.7224 120.866 57.8381L105.957 37.7162C103.381 34.2383 104.068 29.3366 107.503 26.7021C111.641 23.5275 111.641 17.2913 107.503 14.1167L95.188 4.66947C91.5975 1.91507 86.6048 1.91514 83.0144 4.66964L70.3608 14.3772C66.3938 17.4207 66.3939 23.399 70.361 26.4424C73.6353 28.9542 74.3082 33.6192 71.8772 36.9539L56.767 57.6814C53.954 61.5403 48.6629 62.618 44.5646 60.167L40.9718 58.0182C37.0547 55.6755 37.3533 49.6802 37.3533 45.116C37.3533 38.3902 28.9752 32.9183 18.6771 32.9183C8.37814 32.9183 0 38.3902 0 45.116C0 49.4091 3.41508 53.19 8.56397 55.3634C12.9289 57.2059 16.8777 60.5923 17.4784 65.292L21.0539 93.2678C21.6919 98.2599 25.9405 102 30.9732 102H147.028C152.06 102 156.309 98.2599 156.947 93.2678L160.522 65.2919C161.123 60.5923 165.072 57.2059 169.437 55.3632C174.585 53.1897 178 49.409 178 45.116Z" fill="url(#paint1_linear_2_47)"/>
<defs>
<linearGradient id="paint0_linear_2_47" x1="35.8561" y1="128.233" x2="114.766" y2="290.985" gradientUnits="userSpaceOnUse">
<stop stop-color="#2973F6"/>
<stop offset="1" stop-color="#28D5E2"/>
</linearGradient>
<linearGradient id="paint1_linear_2_47" x1="35.8561" y1="8.5" x2="72.5141" y2="126.203" gradientUnits="userSpaceOnUse">
<stop stop-color="#2973F6"/>
<stop offset="1" stop-color="#28D5E2"/>
</linearGradient>
</defs>
</svg>
